<?xml version="1.0" standalone="no"?>
<!DOCTYPE svg PUBLIC "-//W3C//DTD SVG 20010904//EN"
 "http://www.w3.org/TR/2001/REC-SVG-20010904/DTD/svg10.dtd">
<svg version="1.0" xmlns="http://www.w3.org/2000/svg"
 width="380.000000pt" height="380.000000pt" viewBox="0 0 380.000000 380.000000"
 preserveAspectRatio="xMidYMid meet">
<metadata>
Created by potrace 1.11, written by Peter Selinger 2001-2013
</metadata>
<g transform="translate(0.000000,380.000000) scale(0.100000,-0.100000)"
fill="#000000" stroke="none">
<path d="M37 3733 c-8 -8 -9 -203 -2 -203 9 0 329 -50 353 -56 l22 -4 0 -1575
0 -1575 -22 -4 c-13 -3 -88 -15 -168 -26 -80 -11 -155 -23 -168 -26 -22 -4
-23 -7 -20 -107 l3 -102 1235 0 1235 0 37 330 c20 182 37 345 37 363 l1 33
-91 -3 -91 -3 -86 -212 -86 -213 -663 0 -663 0 0 715 0 715 438 0 437 0 30
-107 30 -108 85 0 85 0 3 108 3 107 459 0 460 0 -2 -732 -3 -732 -180 -27
c-99 -15 -181 -28 -183 -28 -1 -1 -1 -47 0 -103 l3 -103 595 0 595 0 3 102 c2
90 1 102 -15 107 -10 3 -85 14 -168 26 -82 12 -158 23 -167 26 -17 5 -18 89
-18 1579 l0 1575 23 5 c12 2 83 14 157 25 74 12 147 23 163 26 l27 6 0 104 0
104 -597 -2 -598 -3 -3 -102 -3 -101 68 -11 c37 -7 120 -20 183 -29 l115 -18
3 -697 2 -697 -460 0 -460 0 0 145 0 145 -88 0 -87 0 -36 -127 -36 -128 -431
-3 -432 -2 0 665 0 665 604 0 605 0 15 -52 c9 -29 38 -125 65 -213 l49 -160
106 -3 106 -3 0 28 c0 15 -11 170 -25 343 -14 173 -25 325 -25 338 l0 22
-1178 0 c-648 0 -1182 -3 -1185 -7z"/>
</g>
</svg>
