<?xml version="1.0" encoding="UTF-8" standalone="no"?>
<!-- Created with Inkscape (http://www.inkscape.org/) -->

<svg
   version="1.1"
   id="svg2"
   xml:space="preserve"
   width="192"
   height="62.506668"
   viewBox="0 0 192 62.506668"
   sodipodi:docname="PrimShield_Mono_RegUse_Card-Blk_CMYK.eps"
   xmlns:inkscape="http://www.inkscape.org/namespaces/inkscape"
   xmlns:sodipodi="http://sodipodi.sourceforge.net/DTD/sodipodi-0.dtd"
   xmlns="http://www.w3.org/2000/svg"
   xmlns:svg="http://www.w3.org/2000/svg"><defs
     id="defs6" /><sodipodi:namedview
     id="namedview4"
     pagecolor="#ffffff"
     bordercolor="#666666"
     borderopacity="1.0"
     inkscape:pageshadow="2"
     inkscape:pageopacity="0.0"
     inkscape:pagecheckerboard="0" /><g
     id="g8"
     inkscape:groupmode="layer"
     inkscape:label="ink_ext_XXXXXX"
     transform="matrix(1.3333333,0,0,-1.3333333,0,62.506667)"><g
       id="g10"
       transform="scale(0.1)"><path
         d="m 485.855,378.039 c 0,18.441 -4.343,27.121 -18.445,27.121 h -24.949 c -3.246,0 -4.344,1.082 -4.344,4.883 v 12.477 c 0,3.246 1.098,4.335 5.422,4.335 5.426,0 31.461,-1.628 83.531,-1.628 45.571,0 71.602,1.628 78.114,1.628 3.261,0 4.343,-1.089 4.343,-3.792 v -13.559 c 0,-3.262 -1.082,-4.344 -4.343,-4.344 h -22.782 c -16.269,0 -26.035,-9.762 -26.578,-21.148 -0.543,-6.516 -1.629,-39.051 -1.629,-70.516 v -67.262 c 0,-27.121 0.543,-65.629 1.629,-82.988 1.629,-24.945 5.969,-49.894 18.981,-67.2538 18.445,-24.957 47.73,-33.625 73.765,-33.625 24.957,0 55.332,9.7617 72.692,26.0351 20.605,20.6057 31.449,52.0627 31.449,91.6607 v 97.632 c 0,43.399 -4.34,91.129 -5.961,103.598 -1.625,14.105 -10.312,23.867 -22.238,23.867 h -19.52 c -3.258,0 -4.34,1.629 -4.34,3.801 v 13.559 c 0,3.246 1.082,4.335 4.34,4.335 5.422,0 30.367,-1.628 66.172,-1.628 33.621,0 50.981,1.628 55.313,1.628 4.886,0 5.433,-1.628 5.433,-4.335 v -12.477 c 0,-3.254 -0.547,-4.883 -3.262,-4.883 h -19.519 c -19.524,0 -21.695,-15.187 -22.777,-21.148 -1.094,-6.516 -1.094,-82.449 -1.094,-89.5 0,-7.59 -1.078,-101.973 -3.246,-123.668 -3.262,-44.477 -16.274,-78.1135 -45.574,-104.1448 -22.77,-20.6094 -57.485,-33.625 -98.711,-33.625 -26.043,0 -57.497,4.336 -78.11,13.0156 -31.461,13.0235 -53.152,37.9688 -64,72.6802 -7.586,23.867 -9.762,59.664 -9.762,130.726 v 128.543"
         style="fill:#a20e32;fill-opacity:1;fill-rule:nonzero;stroke:none"
         id="path12" /><path
         d="m 847.117,162.164 c 2.176,0 3.25,-1.082 3.25,-4.336 1.094,-17.363 5.43,-37.969 20.621,-61.8358 16.27,-26.0391 44.473,-39.0508 71.59,-39.0508 29.293,0 70.512,18.4297 70.512,63.4606 0,49.899 -22.777,66.172 -80.277,87.868 -17.352,6.507 -53.157,21.695 -79.192,45.558 -18.43,17.36 -27.117,44.481 -27.117,77.563 0,30.375 11.93,55.32 37.965,75.941 21.695,18.434 45.566,26.031 77.031,26.031 35.797,0 57.496,-8.672 68.34,-13.015 5.43,-2.164 8.68,-1.09 11.39,1.625 l 7.05,7.054 c 2.17,2.164 4.34,3.254 7.58,3.254 3.27,0 4.35,-3.254 4.35,-8.672 0,-8.687 8.68,-84.621 8.68,-90.046 0,-2.172 -1.08,-3.254 -3.25,-3.797 l -8.68,-2.711 c -2.16,-0.543 -4.34,0 -5.42,3.254 -5.43,15.187 -14.11,36.882 -33.638,57.492 -14.101,15.187 -31.449,22.785 -56.402,22.785 -43.395,0 -60.754,-34.715 -60.754,-54.785 0,-18.442 2.168,-34.707 15.188,-48.813 14.101,-14.105 44.476,-27.121 66.168,-33.629 31.464,-9.765 57.498,-20.609 78.108,-42.304 17.36,-18.45 27.13,-41.227 27.13,-77.571 0,-66.1637 -43.4,-120.4098 -114.996,-120.4098 -44.481,0 -70.512,9.7617 -92.203,26.0391 -6.52,4.332 -9.774,6.5078 -13.024,6.5078 -3.246,0 -5.426,-4.3438 -8.683,-9.7695 -3.243,-5.4258 -5.411,-6.5078 -9.758,-6.5078 -4.336,0 -6.516,3.2539 -6.516,8.6718 1.094,6.5117 8.688,94.3864 9.77,100.8944 0.543,3.254 1.093,4.336 3.261,4.336 l 11.926,-1.082"
         style="fill:#a20e32;fill-opacity:1;fill-rule:nonzero;stroke:none"
         id="path14" /><path
         d="m 1438.35,129.621 c 1.63,-1.629 2.17,-3.254 1.09,-5.426 -32.55,-46.6442 -84.63,-91.1208 -161.64,-91.1208 -69.43,0 -108.48,20.6055 -142.11,50.9844 -40.14,35.8004 -58.59,98.7184 -58.59,146.4494 0,53.152 17.36,104.144 55.34,145.363 29.28,31.461 75.93,57.492 141.02,57.492 49.9,0 90.05,-15.187 109.56,-26.031 7.6,-4.344 9.77,-4.344 10.85,0 l 4.34,14.106 c 1.08,3.253 2.17,3.253 8.68,3.253 6.51,0 7.59,-1.082 7.59,-8.679 0,-9.77 10.85,-96.555 13.02,-112.821 0.55,-3.265 0,-4.882 -2.17,-5.425 l -10.31,-3.254 c -2.7,-1.082 -4.33,1.09 -5.96,5.414 -6.51,19.531 -19.53,46.652 -42.31,70.515 -23.87,22.786 -52.07,40.145 -94.38,40.145 -86.78,0 -122.58,-78.106 -122.58,-156.211 0,-33.637 9.76,-97.637 49.89,-141.023 35.8,-37.9809 67.27,-42.3168 93.3,-42.3168 59.68,0 106.87,29.8358 129.64,62.9178 2.71,3.801 4.88,5.43 6.51,3.801 l 9.22,-8.133"
         style="fill:#a20e32;fill-opacity:1;fill-rule:nonzero;stroke:none"
         id="path16" /><path
         d="m 114.563,215.582 -18.7974,-0.027 c -2.207,0 -4.1054,0.101 -4.6367,2.625 -0.7226,3.254 2.3828,3.91 2.3828,3.91 -0.2851,-0.195 -1.0469,-1.629 -0.4414,-3.137 0.5469,-1.336 1.6602,-1.148 3.5078,-1.148 l 21.0079,0.027 c 0,-2.035 -3.023,-2.25 -3.023,-2.25"
         style="fill:#231f20;fill-opacity:1;fill-rule:nonzero;stroke:none"
         id="path18" /><path
         d="m 109.488,133.984 h -9.14 c -1.5511,0.008 -2.9613,0.297 -3.5238,2.016 -0.6836,2.063 1.6094,2.559 1.6094,2.559 -0.1797,-0.149 -0.4844,-0.813 -0.0508,-1.86 0.3906,-0.961 1.2383,-0.894 2.5552,-0.902 l 10.679,-0.059 c 0,-1.754 -2.129,-1.754 -2.129,-1.754"
         style="fill:#231f20;fill-opacity:1;fill-rule:nonzero;stroke:none"
         id="path20" /><path
         d="m 117.301,213.641 -25.3401,-0.043 c -2.3906,0 -4.5742,2.07 -4.5742,5.187 0,2.981 2.2031,5.145 4.5664,5.145 l 25.3359,0.035 c 2.371,0 4.586,-2.285 4.602,-5.137 0,-2.879 -2.231,-5.187 -4.59,-5.187 z m -6.149,-6.321 -12.984,-0.007 c -2.2266,-0.02 -4.2188,1.031 -5.4844,2.671 l 23.9184,0.036 c -1.25,-1.645 -3.231,-2.692 -5.45,-2.7 z m -9.078,-3.984 c 2.766,-0.113 6.367,-0.09 10.078,0.398 l -2.664,-59.394 -6.367,-0.008 z m -5.1521,0.406 c 0,0 0.9297,-0.129 2.4648,-0.246 l 2.1993,-59.164 -1.7071,-0.008 z m 19.1251,-67.476 c 0,-2.387 -2.004,-4.453 -4.461,-4.453 l -13.6797,-0.02 c -2.461,0 -4.4688,1.977 -4.4688,4.445 0,2.422 1.9961,4.457 4.4648,4.457 l 13.6717,0.024 c 2.469,0 4.473,-2 4.473,-4.453 z m -8.363,-32.34 c 0,-1.637 -1.196,-2.942 -2.899,-2.942 -1.597,-0.007 -2.914,1.313 -2.914,2.93 l -1.199,24.234 h 1.523 l 0.86,-23.433 c 0,-1.77 0.824,-2.137 0.824,-2.137 l -0.465,25.57 5.356,0.008 z M 85.2031,236.137 c 0,3.183 1.3047,5.84 2.6758,8.644 1.6758,3.414 3.5195,7.196 2.6524,11.992 1.7617,-0.671 4,-1.867 5.9335,-3.789 -1.246,-1.492 -2.5898,-2.941 -3.332,-3.836 -5.168,-6.156 -7.1562,-13.472 -1.6094,-21.64 h -0.8046 c -0.0508,0.008 -5.504,1.949 -5.5157,8.629 z m 18.2579,27.066 c 4.633,-3.738 10.34,-10.773 10.352,-18.855 0,-7.301 -6.258,-15.684 -7.75,-16.754 -1.204,1.633 -2.715,4.699 -2.731,8.168 -0.016,6.019 2.926,9.554 2.926,9.554 0,0 -4.344,-2.808 -4.988,-8.378 -0.301,-2.727 0.289,-5.59 2.14,-9.344 h -2.652 c -0.699,1.129 -5.7853,7.492 -1.551,14.676 0.7149,1.171 3.906,5.789 4.301,6.726 0.496,1.133 0.441,2.199 0.441,2.199 -0.535,-0.859 -1.437,-1.89 -1.437,-1.89 -0.926,-1.008 -4.0432,-4.235 -5.0276,-5.426 -6.0977,-7.395 -0.1641,-15.606 0.1289,-16.305 -0.3242,0 -2.4766,0 -2.4766,0 -2.7187,3.102 -3.6133,6.125 -3.3554,10.672 0.6289,10.207 12.9217,11.492 11.6797,24.957 z m 17.016,-8.652 c -1.262,-7.692 1.046,-13.981 1.425,-14.922 2.168,-7.777 -3.714,-11.356 -5.011,-12.063 l -0.18,0.043 -5.898,-0.007 c 3.675,4.82 6.628,11.121 6.628,16.746 0,1.711 -0.179,3.32 -0.507,4.879 l -0.493,1.644 c 1.497,1.738 2.887,2.93 4.036,3.68 z m 1.035,-28.321 c 3.129,2.801 5.972,7.665 4,14.54 l -0.082,0.203 c -0.028,0.07 -3.114,7.718 -0.438,16.226 l 0.895,2.821 -2.914,-0.368 c -0.426,-0.05 -3.879,-0.586 -8.055,-4.797 -3.488,7.047 -10.133,12.293 -17.0313,15.743 2.5273,-8.075 2.8553,-11.039 0.7774,-14.489 -4.7149,4.395 -10.4532,5.246 -10.7227,5.274 l -3.3203,0.457 1.3437,-3.082 c 2.1329,-4.922 0.461,-8.328 -1.4882,-12.309 -1.4414,-2.922 -3.0703,-6.242 -3.0703,-10.332 0.0078,-5.355 2.7382,-8.797 5.3125,-10.664 -1.8047,-1.644 -2.9688,-4.047 -2.9649,-6.676 0,-3.382 1.7344,-6.332 4.3555,-7.785 0.8554,-2.648 2.707,-4.82 5.1172,-6.101 l 3.0156,-60.731 c -3.6836,-0.773 -6.4453,-4.07 -6.4297,-7.93 0,-4.171 3.1602,-7.613 7.2148,-8.039 l 1.211,-24.336 c 0,-3.601 2.9417,-6.5152 6.5467,-6.5152 3.766,0 6.5,2.9222 6.539,6.4492 l 1.098,24.426 c 4.098,0.418 7.262,3.969 7.238,8.051 0,3.945 -2.808,7.222 -6.531,7.929 l 2.699,60.586 c 2.559,1.27 4.524,3.543 5.387,6.313 2.617,1.531 4.297,4.59 4.297,7.742 -0.012,2.965 -1.578,5.801 -4,7.394"
         style="fill:#231f20;fill-opacity:1;fill-rule:nonzero;stroke:none"
         id="path22" /><path
         d="m 266.18,215.582 -18.789,-0.027 c -2.207,0 -4.098,0.101 -4.653,2.625 -0.711,3.254 2.375,3.91 2.375,3.91 -0.261,-0.195 -1.015,-1.629 -0.422,-3.137 0.536,-1.336 1.653,-1.148 3.508,-1.148 l 20.996,0.027 c 0,-2.035 -3.015,-2.25 -3.015,-2.25"
         style="fill:#231f20;fill-opacity:1;fill-rule:nonzero;stroke:none"
         id="path24" /><path
         d="m 261.102,133.984 h -9.137 c -1.551,0.008 -2.961,0.297 -3.524,2.016 -0.699,2.063 1.61,2.559 1.61,2.559 -0.188,-0.149 -0.481,-0.813 -0.047,-1.86 0.379,-0.961 1.238,-0.894 2.535,-0.902 l 10.703,-0.059 c 0,-1.754 -2.14,-1.754 -2.14,-1.754"
         style="fill:#231f20;fill-opacity:1;fill-rule:nonzero;stroke:none"
         id="path26" /><path
         d="m 268.922,213.641 -25.332,-0.043 c -2.406,0 -4.582,2.07 -4.582,5.187 0,2.981 2.187,5.145 4.57,5.145 l 25.336,0.035 c 2.359,0 4.582,-2.285 4.594,-5.137 0,-2.879 -2.227,-5.187 -4.586,-5.187 z m -6.16,-6.321 -12.989,-0.007 c -2.218,-0.02 -4.195,1.031 -5.468,2.671 l 23.91,0.036 c -1.25,-1.645 -3.242,-2.692 -5.453,-2.7 z m -9.086,-3.984 c 2.777,-0.113 6.379,-0.09 10.101,0.398 l -2.664,-59.394 -6.363,-0.008 z m -5.125,0.406 c 0,0 0.914,-0.129 2.465,-0.246 l 2.179,-59.164 -1.699,-0.008 z m 19.109,-67.476 c 0,-2.387 -1.996,-4.453 -4.453,-4.453 l -13.684,-0.02 c -2.464,0 -4.468,1.977 -4.468,4.445 0,2.422 1.996,4.457 4.465,4.457 l 13.679,0.024 c 2.465,0 4.461,-2 4.461,-4.453 z m -8.363,-32.34 c 0,-1.637 -1.192,-2.942 -2.895,-2.942 -1.601,-0.007 -2.902,1.313 -2.902,2.93 l -1.211,24.234 h 1.52 l 0.871,-23.433 c 0,-1.77 0.824,-2.137 0.824,-2.137 l -0.469,25.57 5.348,0.008 z M 236.82,236.137 c 0,3.183 1.301,5.84 2.672,8.644 1.684,3.414 3.535,7.196 2.645,11.992 1.773,-0.671 4,-1.867 5.937,-3.789 -1.242,-1.492 -2.574,-2.941 -3.34,-3.836 -5.136,-6.156 -7.144,-13.472 -1.593,-21.64 h -0.801 c -0.051,0.008 -5.512,1.949 -5.52,8.629 z m 18.274,27.066 c 4.629,-3.738 10.32,-10.773 10.336,-18.855 0,-7.301 -6.25,-15.684 -7.766,-16.754 -1.203,1.633 -2.707,4.699 -2.715,8.168 -0.011,6.019 2.934,9.554 2.934,9.554 0,0 -4.348,-2.808 -4.988,-8.378 -0.305,-2.727 0.293,-5.59 2.14,-9.344 h -2.648 c -0.696,1.129 -5.801,7.492 -1.567,14.676 0.711,1.171 3.903,5.789 4.305,6.726 0.492,1.133 0.441,2.199 0.441,2.199 -0.531,-0.859 -1.437,-1.89 -1.437,-1.89 -0.918,-1.008 -4.047,-4.235 -5.027,-5.426 -6.086,-7.395 -0.164,-15.606 0.125,-16.305 -0.325,0 -2.473,0 -2.473,0 -2.711,3.102 -3.613,6.125 -3.34,10.672 0.602,10.207 12.902,11.492 11.68,24.957 z m 16.992,-8.652 c -1.231,-7.692 1.055,-13.981 1.426,-14.922 2.168,-7.777 -3.699,-11.356 -4.996,-12.063 l -0.196,0.043 -5.89,-0.007 c 3.687,4.82 6.633,11.121 6.633,16.746 -0.012,1.711 -0.192,3.32 -0.516,4.879 l -0.488,1.644 c 1.492,1.738 2.882,2.93 4.027,3.68 z m 1.055,-28.321 c 3.117,2.801 5.961,7.665 3.996,14.54 l -0.09,0.203 c -0.024,0.07 -3.113,7.718 -0.426,16.226 l 0.887,2.821 -2.934,-0.368 c -0.422,-0.05 -3.855,-0.586 -8.051,-4.797 -3.46,7.047 -10.113,12.293 -17.035,15.743 2.543,-8.075 2.899,-11.039 0.793,-14.481 -4.711,4.387 -10.453,5.238 -10.718,5.266 l -3.321,0.457 1.34,-3.082 c 2.137,-4.922 0.453,-8.328 -1.492,-12.309 -1.434,-2.922 -3.067,-6.242 -3.067,-10.332 0.02,-5.363 2.739,-8.797 5.313,-10.672 -1.801,-1.636 -2.973,-4.039 -2.953,-6.668 0,-3.382 1.726,-6.332 4.34,-7.785 0.863,-2.648 2.703,-4.82 5.129,-6.101 l 3.003,-60.731 c -3.683,-0.773 -6.445,-4.07 -6.417,-7.93 0,-4.171 3.16,-7.613 7.203,-8.039 l 1.218,-24.336 c 0,-3.601 2.93,-6.5152 6.543,-6.5152 3.762,0 6.493,2.9222 6.528,6.4492 l 1.109,24.426 c 4.102,0.418 7.258,3.969 7.242,8.051 0,3.945 -2.812,7.222 -6.531,7.929 l 2.691,60.586 c 2.547,1.27 4.512,3.543 5.379,6.313 2.625,1.531 4.317,4.59 4.317,7.742 -0.016,2.965 -1.59,5.801 -3.996,7.394"
         style="fill:#231f20;fill-opacity:1;fill-rule:nonzero;stroke:none"
         id="path28" /><path
         d="m 198.473,201.773 -33.469,-0.043 c -4.371,0 -7.918,3.547 -7.918,7.891 -0.016,4.367 3.531,7.902 7.887,7.91 l 33.476,0.043 c 0.602,0 1.164,-0.066 1.719,-0.195 l 0.031,-0.066 c 0,0 0.059,0.023 0.102,0.05 3.472,-0.836 6.066,-3.953 6.066,-7.675 0,-4.352 -3.523,-7.915 -7.894,-7.915 z m -6.727,-8.55 -20.391,-0.016 c -3.253,0 -6.066,1.969 -7.277,4.777 0.317,-0.015 0.61,-0.043 0.926,-0.043 l 33.48,0.043 c 0.387,0 0.774,0.008 1.145,0.051 -1.27,-2.777 -4.363,-4.805 -7.883,-4.812 z m -2.473,-87.809 -9.722,-0.008 -1.035,84.012 13.257,0.016 c 0.461,0 0.911,0.023 1.379,0.074 z m 9.004,-10.3163 c 0,-3.6172 -2.937,-6.5586 -6.539,-6.5664 l -19.465,-0.0235 c -3.613,0 -6.546,2.9375 -6.546,6.5508 0,3.6016 2.914,6.5464 6.523,6.5464 l 19.469,0.02 c 3.601,0.008 6.539,-2.9219 6.558,-6.5273 z M 186.754,50.4922 c 0,-2.75 -2.234,-5 -4.988,-5 -2.766,0 -4.989,2.2422 -5.02,5.0859 l -1.558,34.1563 h 3.089 l 1.286,-33.3828 c 0,-2.4532 1.125,-2.9532 1.125,-2.9532 l -0.575,36.336 8.219,0.0156 z m -12.703,138.9258 3.523,-84.012 -3.332,-0.015 -3.859,84.058 c 0.32,-0.023 0.64,-0.051 0.972,-0.051 z m -19.973,44.078 c -0.023,4.598 1.824,8.336 3.777,12.317 2.528,5.144 5.129,10.457 3.352,17.425 2.742,-0.886 6.781,-2.726 10.148,-6.254 -0.832,-1.027 -1.746,-2.007 -2.73,-3.074 -0.715,-0.801 -1.484,-1.625 -2.293,-2.527 -1.144,-1.145 -13.434,-14.125 -3.012,-30.195 -0.441,-0.059 -0.871,-0.145 -1.293,-0.258 -1.183,0.476 -7.941,3.621 -7.949,12.566 z m 24.602,28.762 c 1.16,3.238 0.968,6.961 0.496,9.875 5.773,-4.465 15.789,-13.93 15.875,-25.965 0.094,-12.223 -7.848,-21.668 -10.871,-24.805 l -0.528,-0.015 c -1.648,2.273 -3.714,6.472 -3.714,11.246 -0.008,8.344 4.07,13.234 4.07,13.234 0,0 -6.028,-3.902 -6.906,-11.609 -0.43,-3.758 0.375,-7.707 2.902,-12.871 h -3.668 c -1.148,1.746 -7.918,10.433 -2.121,20.246 0.973,1.644 5.394,8.035 5.961,9.328 0.691,1.586 0.613,3.074 0.613,3.074 -0.719,-1.211 -2,-2.633 -2,-2.633 -1.273,-1.402 -5.601,-5.875 -6.961,-7.539 -8.269,-10.023 -0.551,-21.172 0.137,-22.484 l -4.11,-0.016 c -11.492,14.996 0.629,26.864 1.165,27.383 l 0.128,0.129 c 0.782,0.902 1.547,1.711 2.262,2.492 2.957,3.195 5.488,5.957 7.27,10.93 z m 26.027,-1.797 c -2.348,-11.293 1.168,-20.695 1.645,-21.898 2.918,-10.325 -4.008,-15.622 -6.711,-17.258 -0.383,0.043 -0.789,0.058 -1.192,0.058 h -9.176 c 3.969,4.797 9.657,13.664 9.567,24.832 -0.02,2.887 -0.508,5.621 -1.348,8.203 2.785,3.262 5.36,5.075 7.215,6.063 z m -0.602,-40.551 c 3.86,3.25 8.79,9.606 5.868,19.801 l -0.063,0.195 c -0.062,0.121 -4.445,11.016 -0.64,23 l 0.894,2.821 -2.926,-0.36 c -0.238,-0.031 -5.304,-0.73 -11.312,-7.062 -5.789,12.054 -18.16,19.515 -18.852,19.906 l -4.547,2.684 1.801,-4.957 c 0.731,-2.02 2.309,-8.168 0.785,-12.391 -0.453,-1.289 -0.992,-2.387 -1.554,-3.383 -6.469,6.422 -14.68,7.57 -15.036,7.613 l -3.328,0.446 1.336,-3.078 c 3.09,-7.102 0.703,-12 -2.066,-17.665 -2.051,-4.183 -4.184,-8.507 -4.168,-13.984 0,-7.539 4.012,-12.234 7.551,-14.617 -2.774,-2.149 -4.571,-5.484 -4.559,-9.258 0.004,-4.594 2.668,-8.562 6.531,-10.469 0.668,-3.894 3.227,-7.129 6.727,-8.707 l 3.914,-85.218 c -4.863,-0.86 -8.543,-5.102 -8.543,-10.1801 0.012,-5.3985 4.18,-9.836 9.473,-10.2891 l 1.578,-34.2812 c 0,-4.8399 3.953,-8.7813 8.797,-8.7735 4.843,0 8.781,3.961 8.769,8.7032 l 1.582,34.3515 c 5.524,0.2227 9.953,4.7617 9.953,10.3399 -0.015,5.2503 -3.937,9.5583 -8.996,10.2223 L 197,190.582 c 3.652,1.645 6.344,4.934 6.918,8.758 3.727,1.957 6.258,5.859 6.246,10.355 0,4.387 -2.449,8.231 -6.059,10.215"
         style="fill:#231f20;fill-opacity:1;fill-rule:nonzero;stroke:none"
         id="path30" /><path
         d="m 163.148,209.516 c -0.964,2.394 0.258,4.711 0.684,5.035 0,0 -4.727,-0.809 -3.574,-6.082 0.863,-4.035 3.668,-4.473 7.234,-4.453 l 30.332,0.035 c 0,0 3.547,-0.332 4.891,3.023 l -33.922,-0.043 c -2.969,-0.008 -4.762,0.297 -5.645,2.485"
         style="fill:#231f20;fill-opacity:1;fill-rule:nonzero;stroke:none"
         id="path32" /><path
         d="m 170.684,94.8516 c -0.754,1.9101 0.191,3.7304 0.539,3.9882 0,0 -3.731,-0.6406 -2.84,-4.8046 0.711,-3.1954 2.906,-3.5196 5.722,-3.5196 l 16.54,0.0274 c 0,0 2.793,-0.2657 3.843,2.375 l -19.347,-0.0235 c -2.364,0 -3.774,0.2461 -4.457,1.9571"
         style="fill:#231f20;fill-opacity:1;fill-rule:nonzero;stroke:none"
         id="path34" /><path
         d="M 322.938,181.52 C 300.836,127.637 258.551,53.8906 182.305,7.41797 105.914,53.6875 63.4258,127.34 41.2031,181.16 20.7383,230.727 13.2617,272.82 11.3672,285.195 c 9.1289,5.137 18.2266,7.618 28.5234,7.625 0.0235,0 0.0586,0 0.0742,0 7.2188,0 17.4024,-1.32 23.2305,-3.015 l 3.5274,-1.039 c 2.9882,-0.86 6.0507,-1.762 9.1679,-2.641 v -0.008 c 11.2891,-3.226 24.1055,-6.523 33.7344,-6.523 0.012,0 0.035,0 0.078,0 10.774,0.015 27.61,1.429 46.52,8.09 5.394,1.898 11.808,3.961 18.703,4.863 l 6.23,0.453 c 0.117,0 0.242,0 0.367,0 l 9.625,-0.859 c 5.852,-1 11.364,-2.778 15.993,-4.387 18.824,-6.586 35.644,-7.984 46.461,-7.984 0.035,0 0.074,0 0.097,0 6.535,0.011 15.016,1.484 26.731,4.644 v -0.012 c 4.871,1.313 9.781,2.77 14.461,4.153 l 5.257,1.547 c 5.79,1.695 16.395,3.078 23.645,3.086 0,0 0.027,0 0.047,0 10.277,0 19.672,-2.497 28.683,-7.379 -1.82,-12.129 -9.16,-54.434 -29.585,-104.289 z M 113.363,331.977 c -2.363,-5.844 -4.054,-12.071 -4.886,-18.606 -8.6215,0.352 -20.0825,3.301 -30.3364,6.211 l -12.664,3.688 c -6.418,1.867 -17.1524,3.273 -25,3.273 -0.0352,0 -0.0664,0 -0.1055,0 -11.2969,-0.02 -23.0469,-2.711 -32.99219,-7.453 -0.4375,6.242 -0.8125,13.269 -0.97657,20.941 z M 6.65234,365.371 117.793,341.039 c -0.984,-1.687 -1.879,-3.434 -2.719,-5.223 L 6.30078,350.355 c 0.01563,4.805 0.15625,9.864 0.35156,15.016 z m 3.83206,40.606 115.4336,-53.473 c -2.18,-2.547 -4.258,-5.188 -6.09,-8.016 L 7.22656,376.039 c 0.66407,9.606 1.70313,19.641 3.25784,29.938 z m 3.0508,17.308 c 4.4687,-0.98 13.289,-2.683 24.6757,-3.883 l 93.7421,-60.648 c -1.238,-1.149 -2.484,-2.309 -3.652,-3.543 L 12.4063,417.246 c 0.3789,2.02 0.707,4.012 1.1289,6.039 z m 49.8906,-5.222 c 12.0469,0.019 23.4101,1.031 33.9961,3.007 l 47.2971,-52.988 c -3.586,-2.07 -6.957,-4.437 -10.125,-7.07 l -78.1057,57.164 c 2.2656,-0.063 4.5625,-0.121 6.9375,-0.113 z m 60.3632,10.179 31.363,-55.117 c -2.121,-0.809 -4.199,-1.738 -6.23,-2.734 l -39.891,53.328 c 5.18,1.379 10.09,2.906 14.758,4.523 z m 41.5,20.024 9.555,-70.543 c -5.297,-0.493 -10.395,-1.602 -15.301,-3.133 l -26.316,57.203 c 13.156,5.316 23.921,11.254 32.062,16.473 z m 16.453,12.054 c 2.34,-1.968 4.711,-3.824 7.106,-5.613 l -4.254,-76.777 c -0.895,0.043 -1.774,0.125 -2.664,0.125 -0.051,0 -0.067,0 -0.102,0 -0.941,0 -1.84,-0.102 -2.758,-0.133 l -4.261,76.902 c 3.078,2.278 5.421,4.192 6.933,5.496 z m 16.41,-12.054 c 11.211,-7.254 22.309,-12.614 31.817,-16.446 l -26.281,-57.129 c -4.848,1.508 -9.891,2.582 -15.079,3.051 z m 41.278,-19.981 c 6.707,-2.308 11.953,-3.73 14.816,-4.414 l -39.922,-53.379 c -2.039,1.004 -4.121,1.91 -6.25,2.727 z m 26.695,-6.832 c 11.707,-2.043 23.84,-3.109 36.266,-3.101 1.492,0 2.91,0.054 4.355,0.086 l -78.137,-57.204 c -3.152,2.571 -6.507,4.907 -10.046,6.95 z m 58.727,-1.941 c 11.816,1.211 20.671,3.051 25.144,4.133 0.414,-2.02 0.746,-4.024 1.137,-6.051 L 234.98,355.426 c -1.187,1.219 -2.425,2.418 -3.695,3.558 z m 28.23,-13.219 c 1.613,-10.527 2.715,-20.773 3.383,-30.586 l -112.5,-31.535 c -1.957,3.023 -4.164,5.851 -6.539,8.543 z m 4.32,-56.09 -108.722,-14.531 c -0.836,1.746 -1.731,3.469 -2.692,5.137 l 111.047,24.308 c 0.207,-5.129 0.352,-10.137 0.367,-14.914 z m -77.312,-35.348 -0.824,3.067 c -6.75,-1.817 -16.383,-4.176 -23.953,-4.387 -0.833,6.43 -2.543,12.563 -4.915,18.363 l 106.918,8.051 c -0.144,-7.359 -0.476,-14.113 -0.882,-20.144 -9.75,4.539 -21.192,7.093 -32.118,7.093 0,0 -0.027,0 -0.054,0 -6.899,0 -18.278,-1.257 -25.375,-3.32 l -4.895,-1.441 c -4.742,-1.414 -9.738,-2.895 -14.715,-4.215 z m -97.918,11.875 -0.031,-0.476 v 0.476 c -2.504,-0.019 -5.024,-0.187 -7.465,-0.511 v 0 c -7.426,-0.946 -14.313,-3.145 -20.067,-5.172 -15.488,-5.457 -29.527,-7.223 -39.722,-7.629 4.629,33.387 32.855,58.25 66.949,58.293 0.027,0 0.062,0 0.094,0 33.656,0 62.242,-25.18 66.984,-58.098 -10.152,0.414 -23.937,2.18 -39.195,7.52 -4.547,1.594 -10.625,3.551 -17.086,4.668 l -0.043,-0.231 0.035,0.231 c -3.664,0.621 -7.07,0.929 -10.453,0.929 z M 110.16,306.961 c 0,0 0.031,0 0.039,0 7.551,0.016 18.078,0.766 30.129,3.449 5.223,1.156 10.707,2.649 16.402,4.668 5.426,1.899 11.887,3.977 18.727,4.836 l 6.652,0.461 9.52,-0.844 c 5.973,-1.031 11.691,-2.879 16.008,-4.394 6.988,-2.446 13.679,-4.164 19.906,-5.383 10.566,-2.043 19.727,-2.598 26.551,-2.598 h 0.101 c 6.52,0 14.762,1.43 26.715,4.633 5.02,1.348 10.086,2.844 14.887,4.266 l 4.879,1.433 c 5.758,1.688 16.355,3.067 23.597,3.075 0.016,0 0.036,0 0.036,0 10.894,0 22.214,-2.829 31.566,-7.657 -0.223,-2.539 -0.437,-4.89 -0.668,-7.054 -9.699,4.855 -20.461,7.41 -31.367,7.41 -0.027,0 -0.059,0 -0.082,0 -6.957,-0.016 -18.363,-1.27 -25.387,-3.321 l -5.238,-1.543 c -4.637,-1.378 -9.524,-2.828 -14.36,-4.121 -7.132,-1.91 -17.472,-4.277 -25.242,-4.422 -10.312,0 -26.304,1.336 -44.328,7.633 -2.234,0.782 -4.84,1.653 -7.648,2.461 -2.961,0.86 -6.157,1.653 -9.446,2.215 -3.64,0.621 -7.05,0.922 -10.472,0.922 -2.512,-0.012 -4.946,-0.172 -7.465,-0.523 v 0.007 c -3.918,-0.492 -7.668,-1.343 -11.195,-2.332 -3.157,-0.886 -6.145,-1.867 -8.879,-2.828 -18.082,-6.371 -34.129,-7.726 -44.422,-7.742 h -0.071 c -8.746,0 -21.0816,3.176 -31.9839,6.285 l -12.6563,3.68 c -6.4179,1.867 -17.121,3.262 -24.9726,3.262 -0.043,0 -0.0899,0 -0.1445,0 -10.8829,-0.016 -21.6016,-2.555 -31.25395,-7.391 -0.21875,2.078 -0.44531,4.324 -0.65234,6.734 9.52339,5.043 21.21089,7.942 32.44139,7.957 0.0274,0 0.0586,0 0.082,0 7.2266,0 17.4063,-1.328 23.2461,-3.015 l 12.6758,-3.696 0.8789,3.047 -0.8789,-3.047 c 11.9102,-3.39 24.2383,-6.523 33.7733,-6.523 z m 169.442,-19.488 -0.821,3.054 c -11.168,-3.004 -19.144,-4.402 -25.09,-4.41 -0.015,0 -0.058,0 -0.058,0 -10.348,0 -26.406,1.328 -44.406,7.629 -4.903,1.707 -10.762,3.598 -17.09,4.652 -6.446,1.098 -12.004,1.227 -17.965,0.454 -7.488,-0.973 -14.344,-3.168 -20.043,-5.188 -18.078,-6.363 -34.152,-7.719 -44.449,-7.734 0,0 -0.043,0 -0.055,0 -8.84,0 -21.1328,3.175 -31.9766,6.293 l -0.8828,-3.055 0.8633,3.055 c -3.1016,0.879 -6.1641,1.773 -9.1094,2.64 l -3.5429,1.039 c -6.4375,1.86 -17.168,3.274 -25,3.274 -0.0274,0 -0.0625,0 -0.1016,0 -10.625,-0.02 -20.1172,-2.344 -29.5273,-7.242 -0.25,1.593 -0.58207,3.867 -0.94926,6.738 9.30076,5.101 19.77346,7.871 30.46486,7.879 0.0508,0 0.0859,0 0.1289,0 7.2266,0 17.375,-1.321 23.2031,-3.016 l 12.6719,-3.687 0.8789,3.05 -0.8711,-3.05 c 11.9023,-3.391 24.215,-6.528 33.73,-6.528 h 0.075 c 10.773,0.02 27.597,1.442 46.535,8.11 5.433,1.91 11.906,3.98 18.73,4.847 l 6.203,0.453 c 0.125,0 0.25,0.016 0.375,0.016 l 9.586,-0.851 c 5.891,-1.012 11.403,-2.786 15.996,-4.395 18.86,-6.594 35.625,-7.98 46.418,-7.98 0.059,0 0.11,0 0.153,0 6.504,0 14.758,1.429 26.734,4.625 4.891,1.308 9.82,2.777 14.528,4.164 l 5.21,1.535 c 5.723,1.683 16.317,3.062 23.622,3.074 0.023,0 0.043,0 0.07,0 10.703,0 21.238,-2.75 30.59,-7.855 -0.352,-2.75 -0.66,-4.93 -0.907,-6.508 -9.332,4.675 -19.082,6.968 -29.683,6.968 -0.02,0 -0.039,0 -0.039,0 -6.914,-0.007 -18.305,-1.261 -25.422,-3.332 l -5.274,-1.546 c -4.644,-1.383 -9.5,-2.813 -14.32,-4.11 z m 83.742,79.035 -0.621,10.953 c -0.723,10.125 -1.926,20.766 -3.66,31.609 l -1.215,7.375 c -0.7,3.903 -1.473,7.836 -2.336,11.789 l -0.731,3.305 -3.242,-0.945 c -0.113,-0.028 -5.355,-1.524 -14.191,-3 l -21.422,-2.434 c -4.258,-0.273 -8.785,-0.445 -13.547,-0.469 -12.465,-0.007 -24.668,1.114 -36.441,3.262 l -7.52,1.481 c -0.125,0.035 -0.27,0.05 -0.402,0.07 -0.153,0.043 -6.188,1.32 -15.387,4.445 l -9.965,3.703 c -9.996,3.996 -21.828,9.754 -33.57,17.618 l -9.828,7.136 c -1.832,1.457 -3.661,2.949 -5.446,4.532 l -2.183,1.89 -2.086,-1.984 c -0.067,-0.067 -1.84,-1.719 -5.184,-4.344 l -10.012,-7.215 c -8.199,-5.433 -19.597,-11.949 -33.777,-17.699 l -9.992,-3.731 c -4.828,-1.652 -9.895,-3.203 -15.234,-4.566 -0.141,-0.043 -0.293,-0.051 -0.414,-0.094 l -8.6763,-1.882 c -10.1992,-1.899 -21.1914,-2.895 -32.8359,-2.903 -5.6992,0 -11.1445,0.211 -16.2344,0.578 l -21.4609,2.489 c -8.5,1.363 -13.7188,2.683 -13.8321,2.707 l -3.18746,0.808 -0.69922,-3.211 C 7.32813,424.613 6.74219,421.473 6.14063,418.32 L 4.51172,408.738 C 2.85156,398.113 1.69141,387.715 0.992188,377.785 L 0.375,366.762 C 0.144531,361.379 0.0078125,356.199 0,351.191 L 0.0703125,340.512 C 0.675781,310.477 4.25391,289.77 4.53906,288.102 4.86328,285.555 11.2266,237.199 35.2539,178.906 57.8672,124.18 101.074,49.25 178.926,2.03516 L 182.313,0 185.66,2.03516 C 263.387,49.4531 306.43,124.492 328.863,179.289 c 23.899,58.356 30.145,106.727 30.442,109.281 0.289,1.653 3.765,22.129 4.34,51.856 l 0.062,10.621 c -0.008,4.973 -0.137,10.121 -0.363,15.461"
         style="fill:#231f20;fill-opacity:1;fill-rule:nonzero;stroke:none"
         id="path36" /></g></g></svg>
